<svg version="1.1" viewBox="0.0 0.0 960.0 720.0" fill="none" stroke="none" stroke-linecap="square" stroke-miterlimit="10" xmlns:xlink="http://www.w3.org/1999/xlink" xmlns="http://www.w3.org/2000/svg"><clipPath id="p.0"><path d="m0 0l960.0 0l0 720.0l-960.0 0l0 -720.0z" clip-rule="nonzero"/></clipPath><g clip-path="url(#p.0)"><path fill="#000000" fill-opacity="0.0" d="m0 0l960.0 0l0 720.0l-960.0 0z" fill-rule="evenodd"/><path fill="#000000" d="m180.83727 377.30972l0 0c0 -139.94984 139.68715 -253.40158 312.0 -253.40158l0 0c172.3128 0 312.0 113.451744 312.0 253.40158l0 0c0 139.9498 -139.6872 253.40158 -312.0 253.40158l0 0c-172.31287 0 -312.0 -113.45178 -312.0 -253.40158z" fill-rule="evenodd"/><path stroke="#000000" stroke-width="1.0" stroke-linejoin="round" stroke-linecap="butt" d="m180.83727 377.30972l0 0c0 -139.94984 139.68715 -253.40158 312.0 -253.40158l0 0c172.3128 0 312.0 113.451744 312.0 253.40158l0 0c0 139.9498 -139.6872 253.40158 -312.0 253.40158l0 0c-172.31287 0 -312.0 -113.45178 -312.0 -253.40158z" fill-rule="evenodd"/></g></svg>